<?xml version="1.0" standalone="no"?>
<!DOCTYPE svg PUBLIC "-//W3C//DTD SVG 20010904//EN"
 "http://www.w3.org/TR/2001/REC-SVG-20010904/DTD/svg10.dtd">
<svg version="1.0" xmlns="http://www.w3.org/2000/svg"
 width="1120.000000pt" height="1120.000000pt" viewBox="0 0 1120.000000 1120.000000"
 preserveAspectRatio="xMidYMid meet">
<metadata>
Created by potrace 1.11, written by Peter Selinger 2001-2013
</metadata>
<g transform="translate(0.000000,1120.000000) scale(0.100000,-0.100000)"
fill="#000000" stroke="none">
<path d="M1392 5460 l0 -5460 723 0 c752 0 750 0 726 39 -5 7 -5 30 -1 51 4
21 4 44 -1 51 -4 7 -4 20 1 29 5 9 5 22 1 28 -4 7 -5 33 -1 57 4 24 3 48 -3
54 -5 5 -4 17 3 31 8 14 8 25 1 33 -6 8 -6 18 -1 27 5 9 5 19 -1 27 -7 8 -7
18 1 32 7 14 7 27 2 37 -5 9 -6 32 -2 50 5 20 4 34 -1 34 -6 0 -6 8 -2 17 10
22 10 54 0 70 -5 7 -3 22 3 33 7 13 7 26 2 36 -5 9 -6 32 -2 50 5 20 4 34 -1
34 -6 0 -6 8 -2 18 10 21 10 53 0 69 -5 7 -3 22 3 33 7 13 7 26 2 36 -5 9 -6
32 -2 50 5 20 4 34 -1 34 -6 0 -6 8 -2 17 10 22 10 54 0 70 -5 7 -3 22 3 33 7
12 7 26 2 36 -5 9 -6 33 -2 54 4 21 4 44 -1 51 -4 7 -3 23 2 36 5 15 5 23 -2
23 -6 0 -6 7 -2 18 10 21 10 53 0 69 -5 7 -3 22 3 33 7 13 7 26 2 37 -5 9 -6
28 -2 43 4 15 4 33 0 40 -4 6 -4 27 0 46 5 20 4 34 -1 34 -6 0 -6 8 -2 17 10
22 10 54 0 70 -5 7 -3 22 3 33 7 12 7 26 2 36 -5 9 -6 33 -2 54 4 21 4 44 -1
51 -4 7 -3 23 2 36 5 15 5 23 -2 23 -6 0 -6 7 -2 17 10 22 10 54 0 70 -5 7 -3
22 3 33 7 13 7 26 2 37 -5 9 -6 28 -2 43 4 15 4 33 0 40 -4 6 -4 27 0 46 5 20
4 34 -1 34 -6 0 -6 8 -2 18 10 21 10 53 0 69 -5 7 -3 22 3 33 7 12 7 26 2 36
-5 9 -6 33 -2 54 4 21 4 44 -1 51 -4 7 -3 23 2 36 5 15 5 23 -2 23 -6 0 -6 7
-2 18 10 21 10 53 0 69 -5 7 -3 22 3 33 7 13 7 26 2 37 -5 9 -6 28 -2 43 4 15
4 33 0 40 -4 6 -4 27 0 46 5 20 4 34 -1 34 -6 0 -6 8 -2 18 10 21 10 53 0 69
-5 7 -3 22 3 33 7 12 7 26 2 36 -5 9 -6 33 -2 54 4 21 4 44 -1 51 -4 7 -3 23
2 36 5 15 5 23 -2 23 -6 0 -6 7 -2 18 10 21 10 53 0 69 -5 7 -3 22 3 33 7 12
7 26 2 36 -5 9 -6 33 -2 54 4 21 4 44 0 50 -4 6 -4 29 0 50 4 21 4 44 -1 51
-4 7 -4 20 1 29 5 9 5 22 1 28 -4 7 -5 33 -1 57 4 24 3 48 -3 54 -5 5 -4 17 3
31 8 14 8 25 1 33 -6 8 -6 18 -1 27 5 9 5 19 -1 27 -7 8 -7 18 1 32 7 14 7 27
2 37 -5 9 -6 32 -2 50 5 20 4 34 -1 34 -6 0 -6 8 -2 18 10 21 10 53 0 69 -5 7
-3 22 3 33 7 13 7 26 2 36 -5 9 -6 32 -2 50 5 20 4 34 -1 34 -6 0 -6 8 -2 18
10 21 10 53 0 69 -5 7 -4 21 1 30 4 10 7 29 5 43 -5 32 -3 91 2 100 2 3 0 12
-5 20 -5 8 -5 21 0 30 5 9 5 22 1 28 -4 7 -5 33 -1 57 4 24 3 48 -3 54 -5 5
-4 17 3 31 8 14 8 25 1 33 -6 8 -6 18 -1 27 5 9 5 19 -1 27 -7 8 -7 18 1 32 7
14 7 27 2 37 -5 9 -6 32 -2 50 5 20 4 34 -1 34 -6 0 -6 8 -2 18 10 21 10 53 0
69 -5 7 -3 22 3 33 7 13 7 26 2 36 -5 9 -6 32 -2 50 5 20 4 34 -1 34 -6 0 -6
8 -2 18 10 21 10 53 0 69 -5 7 -4 21 1 30 4 10 7 29 5 43 -5 32 -3 91 2 100 2
3 0 12 -5 20 -5 8 -5 21 0 30 5 9 5 22 1 28 -4 7 -5 33 -1 57 4 24 3 48 -3 54
-5 5 -4 17 3 31 8 14 8 25 1 33 -6 8 -6 18 -1 27 5 9 5 19 -1 27 -7 8 -7 18 1
32 7 14 7 27 2 37 -5 9 -6 32 -2 50 5 20 4 34 -1 34 -6 0 -6 8 -2 18 10 21 10
53 0 69 -5 7 -3 22 3 33 7 13 7 26 2 36 -5 9 -6 32 -2 50 5 20 4 34 -1 34 -6
0 -6 8 -2 18 10 21 10 53 0 69 -5 7 -4 21 1 30 4 10 7 29 5 43 -5 32 -3 91 2
100 2 3 0 12 -5 20 -5 8 -5 21 0 30 5 9 5 22 1 28 -4 7 -5 33 -1 57 4 24 3 48
-3 54 -5 5 -4 17 3 31 8 14 8 25 1 33 -6 8 -6 18 -1 27 5 9 5 19 -1 27 -7 8
-7 18 1 32 7 14 7 27 2 37 -5 9 -6 32 -2 50 5 20 4 34 -1 34 -6 0 -6 8 -2 18
10 21 10 53 0 69 -5 7 -3 22 3 33 7 13 7 26 2 36 -5 9 -6 32 -2 50 5 20 4 34
-1 34 -6 0 -6 8 -2 18 10 21 10 53 0 69 -5 7 -4 21 1 30 4 10 7 29 5 43 -5 32
-3 91 2 100 2 3 0 12 -5 20 -5 8 -5 21 0 30 5 9 5 22 1 28 -4 7 -5 33 -1 57 4
24 3 48 -3 54 -5 5 -4 17 3 31 8 14 8 25 1 33 -6 8 -6 18 -1 27 5 9 5 19 -1
27 -7 8 -7 18 1 32 7 14 7 27 2 37 -5 9 -6 32 -2 50 5 20 4 34 -1 34 -6 0 -6
8 -2 18 10 21 10 53 0 69 -5 7 -3 22 3 33 7 13 7 26 2 36 -5 9 -6 32 -2 50 5
20 4 34 -1 34 -6 0 -6 8 -2 18 10 21 10 53 0 69 -5 7 -4 21 1 30 5 10 6 29 2
43 -10 37 -1 63 16 49 8 -6 14 -17 14 -24 0 -8 4 -15 8 -17 11 -4 92 -127 92
-139 0 -5 5 -9 10 -9 6 0 10 -5 10 -10 0 -6 5 -16 10 -23 6 -7 42 -61 82 -122
39 -60 98 -150 130 -198 32 -48 58 -90 58 -93 0 -3 9 -14 20 -26 11 -12 20
-28 20 -35 0 -7 5 -13 10 -13 6 0 10 -7 10 -15 0 -8 5 -15 10 -15 6 0 10 -4
10 -9 0 -9 57 -100 69 -111 4 -3 12 -17 20 -32 8 -15 22 -37 33 -47 10 -11 18
-24 18 -28 0 -4 17 -32 38 -63 20 -30 42 -62 47 -71 30 -50 131 -203 140 -213
6 -6 16 -23 24 -38 8 -15 22 -37 33 -47 10 -11 18 -23 18 -26 0 -3 22 -39 50
-80 27 -41 50 -77 50 -80 0 -4 6 -13 13 -20 29 -33 37 -45 37 -54 0 -5 6 -16
13 -23 17 -19 50 -68 66 -100 8 -15 22 -36 31 -45 9 -10 19 -25 23 -33 12 -25
29 -50 95 -147 34 -51 62 -97 62 -102 0 -5 3 -11 8 -13 7 -3 28 -34 186 -278
52 -80 99 -150 105 -157 6 -7 11 -14 11 -17 0 -4 18 -33 60 -96 6 -8 59 -89
118 -180 60 -91 131 -199 158 -240 27 -41 51 -79 54 -85 3 -5 45 -71 94 -145
183 -277 226 -343 226 -347 0 -2 5 -9 11 -16 9 -11 34 -49 209 -317 41 -63 79
-118 85 -122 5 -4 6 -8 2 -8 -4 0 11 -25 33 -55 22 -30 40 -57 40 -60 0 -4 8
-17 18 -30 9 -12 23 -31 29 -41 7 -11 33 -49 57 -86 25 -38 43 -68 40 -68 -3
0 4 -9 14 -20 10 -11 25 -33 33 -48 8 -15 20 -33 27 -40 7 -8 20 -28 29 -45 9
-18 19 -34 22 -37 4 -3 18 -23 31 -45 13 -22 28 -44 32 -50 22 -27 58 -87 58
-95 0 -6 4 -10 8 -10 4 0 16 -15 27 -32 20 -36 111 -175 322 -496 73 -112 133
-207 133 -212 0 -4 3 -10 8 -12 4 -1 23 -28 42 -58 19 -30 39 -60 45 -67 5 -6
24 -34 40 -62 17 -28 33 -51 38 -51 4 0 7 -4 7 -10 0 -5 51 -87 113 -182 160
-243 249 -380 505 -773 105 -160 281 -429 292 -445 41 -61 130 -201 130 -205
0 -3 9 -15 20 -27 11 -12 26 -34 32 -50 7 -15 15 -28 18 -28 3 0 14 -16 24
-35 11 -19 23 -35 28 -35 5 0 6 -5 3 -10 -3 -6 -2 -10 3 -10 5 0 15 -12 23
-27 8 -15 42 -69 77 -121 34 -51 62 -94 62 -96 0 -3 205 -316 222 -338 7 -10
31 -47 53 -83 l40 -65 725 0 725 0 0 5460 0 5460 -716 0 -716 0 1 -4215 c1
-3015 -2 -4215 -10 -4215 -6 0 -17 12 -25 28 -8 15 -22 36 -31 46 -10 11 -18
24 -18 28 0 11 -42 72 -52 76 -5 2 -8 7 -8 12 0 5 -17 35 -39 67 -21 32 -82
126 -136 208 -54 83 -126 193 -161 246 -35 53 -64 101 -64 107 0 6 -4 12 -8
14 -11 4 -72 94 -72 106 0 6 -3 12 -8 14 -4 2 -36 48 -71 103 -36 55 -67 102
-70 105 -8 6 -29 41 -38 60 -4 8 -11 20 -15 25 -11 12 -218 328 -218 332 0 3
-153 235 -191 290 -16 23 -29 46 -29 52 0 6 -4 11 -10 11 -5 0 -10 7 -10 15 0
8 -4 15 -10 15 -5 0 -10 5 -10 10 0 12 -41 73 -52 78 -5 2 -8 8 -8 13 0 5 -23
42 -50 83 -28 41 -50 79 -50 84 0 6 -4 12 -8 14 -9 3 -202 294 -202 304 0 3
-5 10 -11 17 -6 7 -57 84 -115 172 -57 88 -108 167 -114 175 -28 42 -230 352
-260 400 -19 30 -38 57 -42 58 -5 2 -8 10 -8 18 0 8 -4 14 -10 14 -5 0 -10 7
-10 15 0 8 -4 15 -10 15 -5 0 -10 4 -10 9 0 6 -40 71 -90 145 -49 75 -90 141
-90 146 0 6 -4 10 -9 10 -5 0 -15 12 -22 28 -8 15 -50 81 -93 147 -44 66 -104
158 -135 205 -31 47 -60 93 -66 102 -38 65 -270 414 -277 416 -4 2 -8 8 -8 13
0 5 -16 32 -35 59 -19 27 -35 54 -35 60 0 5 -4 10 -10 10 -5 0 -10 4 -10 10 0
5 -31 56 -68 112 -138 206 -227 344 -240 371 -8 15 -18 27 -23 27 -5 0 -9 5
-9 10 0 6 -36 64 -80 130 -44 66 -80 124 -80 129 0 5 -3 11 -8 13 -4 2 -27 35
-52 73 -25 39 -48 72 -52 73 -5 2 -8 8 -8 12 0 5 -40 70 -90 144 -49 75 -90
140 -90 146 0 5 -4 10 -9 10 -5 0 -14 14 -21 30 -7 17 -16 30 -21 30 -5 0 -9
6 -9 14 0 8 -3 16 -8 18 -4 2 -23 28 -42 58 -19 30 -74 115 -122 188 -48 73
-88 137 -88 142 0 6 -4 10 -10 10 -5 0 -10 7 -10 15 0 8 -4 15 -8 15 -5 0 -15
12 -23 28 -22 42 -151 236 -163 244 -6 4 -8 8 -3 8 4 0 -18 36 -48 80 -30 44
-55 84 -55 90 0 5 -4 10 -10 10 -5 0 -10 6 -10 13 0 6 -11 25 -25 41 -13 16
-27 37 -30 47 -4 11 -11 19 -16 19 -5 0 -9 5 -9 10 0 6 -36 64 -80 130 -44 66
-80 124 -80 129 0 5 -3 11 -7 13 -10 4 -83 112 -83 122 0 4 -6 14 -12 21 -26
29 -38 44 -38 49 0 5 -102 161 -181 279 -21 32 -39 59 -39 62 0 4 -102 161
-117 180 -5 6 -24 35 -43 65 -19 30 -38 57 -42 58 -5 2 -8 8 -8 14 0 6 -20 39
-45 75 -25 35 -45 68 -45 73 0 6 -274 10 -729 10 l-729 0 0 -5460z"/>
</g>
</svg>
